# xmcd
#
# Track frame offsets:
#	150
#	24716
#	63330
#	82168
#	97742
#	120836
#	148090
#	163280
#	195622
#	217852
#	238962
#	257064
#	276862
#
# Disc length: 3903 seconds
#
# Revision: 0
# Processed by: cddbd v1.4PL0 Copyright (c) Steve Scherf et al.
# Submitted via: audiograbber 1.81.01
#
DISCID=b90f3d0d
DTITLE=Lil Aaron Mosby - 'Remembers' The Last Employee
DYEAR=2000
DGENRE=Blues
TTITLE0=Shake For Me
TTITLE1=Sweet Sixteen
TTITLE2=Tore Up
TTITLE3=Kansas City
TTITLE4=In Love With You Baby 24-Hours Of The Day
TTITLE5=Somebody Have Mercy, Pt I
TTITLE6=Somebody Have Mercy, Pt II
TTITLE7=Last Night
TTITLE8=Sweet Home Chicago
TTITLE9=The Things That I Used To Do
TTITLE10=So Long, Oh How I Hate To See You Go
TTITLE11=Oh Baby, You Don't Have To Go
TTITLE12=Goin' To East St Louis
EXTD=Quinn Records 1101\n© 2000\nSt Louis, MO
EXTT0=
EXTT1=
EXTT2=
EXTT3=
EXTT4=
EXTT5=
EXTT6=
EXTT7=
EXTT8=
EXTT9=
EXTT10=
EXTT11=
EXTT12=
PLAYORDER=
